<svg xmlns="http://www.w3.org/2000/svg" width="128" height="128" fill-rule="evenodd" clip-rule="evenodd" image-rendering="optimizeQuality" shape-rendering="geometricPrecision" text-rendering="geometricPrecision" viewBox="0 0 54613 54613"><defs><clipPath id="a"><path d="M27307 0c15081,0 27306,12226 27306,27307 0,15081 -12225,27306 -27306,27306 -15081,0 -27307,-12225 -27307,-27306 0,-15081 12226,-27307 27307,-27307z"/></clipPath></defs><path fill="#53b4ed" d="M27307 0c15081,0 27306,12226 27306,27307 0,15081 -12225,27306 -27306,27306 -15081,0 -27307,-12225 -27307,-27306 0,-15081 12226,-27307 27307,-27307z"/><g clip-path="url(#a)"><rect width="35840" height="5280" fill="#1c3b5c" transform="matrix(.88714 -.31264 .31264 .88714 8435.33 16848.1)"/><path fill="#fff" d="M10606 16083l2981 -1050 -675 5503 -2826 996 -110 -312 630 -5137zm6639 -2340l2981 -1050 -675 5504 -2981 1050 675 -5504zm6639 -2339l2981 -1051 -675 5504 -2981 1050 675 -5503zm6639 -2340l2981 -1051 -675 5504 -2980 1051 674 -5504zm6639 -2340l2981 -1050 -675 5503 -2980 1051 674 -5504z"/><rect width="33712" height="19338" x="10196" y="26480" fill="#205081"/><path fill="#4288c7" fill-rule="nonzero" d="M17495 41930l19114 0 0 401 -19114 0 0 -401zm-1448 -11964l22010 0 201 0 0 200 0 2960 0 201 0 200 0 6497 0 200 -201 0 -22010 0 -201 0 0 -200 0 -6497 0 -200 0 -201 0 -2960 0 -200 201 0zm21809 401l-21609 0 0 2759 21609 0 0 -2759zm-21609 9456l10604 0 0 -6296 -10604 0 0 6296zm11006 0l10603 0 0 -6296 -10603 0 0 6296z"/><rect width="33712" height="4967" x="10196" y="21513" fill="#1c3b5c"/><path fill="#fff" d="M12498 26480l3160 0 -2466 -4967 -2996 0 0 331 2302 4636zm7039 0l3160 0 -2465 -4967 -3161 0 2466 4967zm7039 0l3161 0 -2466 -4967 -3161 0 2466 4967zm7040 0l3160 0 -2466 -4967 -3160 0 2466 4967zm7039 0l3161 0 -2466 -4967 -3161 0 2466 4967z"/><path fill="#ffba5e" d="M11193 11937l8663-4817 7187 1809c0 0-353 2026-2172 1743-1819-282-4402-665-4402-665l6650 2601c0 0-898 1911-2271 1515-1372-397-5260-1685-5260-1685l4546 3835c0 0-1016 1161-1684 987-668-174-3293-2203-3293-2203l2221 3789c0 0-773 1280-1702 467-929-813-2672-2985-2672-2985 0 0-3490 1915-4976 1072-1486-843-15045 179-15045 179l2296-6950 11914 1308zM6944 44481l9020 4110 7019-2378c0 0-514-1990-2305-1563-1790 426-4334 1015-4334 1015l6421-3125c0 0-1048-1833-2385-1328-1336 505-5109 2100-5109 2100l4225-4187c0 0-1105-1076-1757-849-652 227-3107 2459-3107 2459l1912-3954c0 0-873-1214-1734-329-861 885-2425 3189-2425 3189 0 0-3631-1630-5046-671-1414 959-15011 1024-15011 1024l2844 6744 11772-2257z"/></g><path fill="none" d="M27307 0c15081,0 27306,12226 27306,27307 0,15081 -12225,27306 -27306,27306 -15081,0 -27307,-12225 -27307,-27306 0,-15081 12226,-27307 27307,-27307z"/><path fill="#fff" fill-rule="nonzero" d="M43874 19128l1801 -1877 358 342 -1801 1877 -358 -342zm1199 2223l4666 -2347 223 443 -4666 2347 -223 -443zm689 2184l2211 608 -132 478 -2211 -609 132 -477z"/></svg>